<svg viewBox="0 0 40 40" fill="currentColor" class="text-muted-foreground size-9 transition-colors group-hover:text-[var(--brand-color)]"><path d="M19.9967 40C19.4617 40 18.9283 39.86 18.46 39.5883L13.5667 36.6933C12.8367 36.285 13.1933 36.14 13.4333 36.055C14.4083 35.7167 14.605 35.6383 15.6467 35.0483C15.755 34.9867 15.8983 35.01 16.01 35.0767L19.77 37.3083C19.9067 37.3833 20.0983 37.3833 20.2233 37.3083L34.8817 28.8483C35.0183 28.77 35.105 28.6133 35.105 28.4517V11.535C35.105 11.37 35.0167 11.215 34.8767 11.1317L20.225 2.67833C20.09 2.6 19.91 2.6 19.7733 2.67833L5.125 11.1333C4.98333 11.215 4.89333 11.375 4.89333 11.535V28.4517C4.89333 28.6133 4.98333 28.7667 5.125 28.8433L9.14 31.1633C11.3183 32.2533 12.6533 30.97 12.6533 29.68V12.9783C12.6533 12.7417 12.8433 12.5567 13.08 12.5567H14.9383C15.17 12.5567 15.3633 12.7433 15.3633 12.9783V29.68C15.3633 32.5883 13.78 34.255 11.0233 34.255C10.1767 34.255 9.50833 34.255 7.64667 33.3367L3.8 31.125C2.85 30.5767 2.26333 29.55 2.26333 28.4517V11.535C2.26333 10.4367 2.85167 9.41 3.8 8.86333L18.4583 0.393333C19.3867 -0.131667 20.6183 -0.131667 21.5383 0.393333L36.195 8.86333C37.145 9.41167 37.735 10.4367 37.735 11.535V28.4517C37.735 29.55 37.145 30.5733 36.195 31.125L21.5383 39.5883C21.0717 39.86 20.54 40 19.9967 40ZM31.8317 23.3217C31.8317 20.155 29.6917 19.3117 25.1867 18.7167C20.635 18.115 20.1717 17.8033 20.1717 16.7383C20.1717 15.8583 20.5633 14.6833 23.935 14.6833C26.9467 14.6833 28.0567 15.3317 28.5133 17.3617C28.5533 17.5533 28.7283 17.6933 28.925 17.6933H30.8267C30.945 17.6933 31.0567 17.6417 31.1367 17.5583C31.2167 17.4683 31.26 17.3533 31.2483 17.2317C30.9533 13.735 28.63 12.105 23.935 12.105C19.755 12.105 17.2617 13.8683 17.2617 16.8267C17.2617 20.035 19.7417 20.9217 23.7533 21.3183C28.5533 21.7883 28.925 22.49 28.925 23.4333C28.925 25.0717 27.61 25.77 24.5217 25.77C20.6433 25.77 19.79 24.7967 19.5033 22.8667C19.47 22.66 19.2933 22.5083 19.0817 22.5083H17.1867C16.9517 22.5083 16.7633 22.695 16.7633 22.93C16.7633 25.4 18.1067 28.3433 24.5217 28.3433C29.1683 28.345 31.8317 26.5167 31.8317 23.3217Z"></path></svg>
